# xmcd
#
# Track frame offsets:
#	150
#	22535
#	39915
#	59357
#	78270
#	95015
#	113880
#	135785
#	161955
#	182475
#	198270
#	215700
#	233030
#	253840
#	272535
#	296997
#	309720
#	328077
#
# Disc length: 4604
#
# Revision: 1
# Processed by: cddbd v1.5.1PL0 Copyright (c) Steve Scherf et al.
# Submitted via: CDex 1.50Beta7
# Normalized: r0:TDELIM( - )
#
DISCID=fb11fa12
DTITLE=Various Artist - The power of love II
DYEAR=1900
DGENRE=Blues
TTITLE0=Aerosmith - I don't want miss a thing
TTITLE1=LeeAnn Rimes - How do i live
TTITLE2=Mariah Carey - Hero
TTITLE3=Celine Dion - The power of love
TTITLE4=Extreme - More than words
TTITLE5=Berlin - Take my breath away
TTITLE6=Air Supply - Making love out of nothing at all
TTITLE7=George Michael and Elton John - Don't let the sun go down on me
TTITLE8=Glenn Frey - The one you love
TTITLE9=Phil Collins - A groovy kind of love
TTITLE10=Chicago - Hard to say i'm sorry
TTITLE11=Billy Joel - Honesty
TTITLE12=Whitney Housten - Where do broken hearts go
TTITLE13=Lionel Richie - Hello
TTITLE14=Madonna - Rain
TTITLE15=Boyz to men - It's so hard to say goodbye to yesterday
TTITLE16=Boyzone - Words
TTITLE17=Michael learns to rock - Paint my love
EXTD=
EXTT0=
EXTT1=
EXTT2=
EXTT3=
EXTT4=
EXTT5=
EXTT6=
EXTT7=
EXTT8=
EXTT9=
EXTT10=
EXTT11=
EXTT12=
EXTT13=
EXTT14=
EXTT15=
EXTT16=
EXTT17=
PLAYORDER=
